<?xml version="1.0" encoding="utf-8"?>
<!-- Generator: Adobe Illustrator 28.2.0, SVG Export Plug-In . SVG Version: 6.00 Build 0)  -->
<svg version="1.1" id="Layer_1" xmlns="http://www.w3.org/2000/svg" xmlns:xlink="http://www.w3.org/1999/xlink" x="0px" y="0px"
	 viewBox="0 0 1920 1080" style="enable-background:new 0 0 1920 1080;" xml:space="preserve">
<style type="text/css">
	.st0{fill:none;stroke:#FBFBFB;stroke-width:6.825;stroke-linecap:round;stroke-miterlimit:10;}
</style>
<g>
	<path class="st0" d="M945.5,509.4v40.6c0,1.1,1.2,1.8,2.2,1.2l34.6-21.8c0.9-0.6,0.9-1.9-0.1-2.4l-34.6-18.7
		C946.6,507.6,945.5,508.3,945.5,509.4z"/>
	<path class="st0" d="M1041.7,605.1H877.4c-5.7,0-10.4-4.6-10.4-10.4V485.8c0-5.7,4.6-10.4,10.4-10.4h164.3
		c5.7,0,10.4,4.6,10.4,10.4v108.9C1052.1,600.5,1047.4,605.1,1041.7,605.1z"/>
	<line class="st0" x1="889.3" y1="582.7" x2="1029.8" y2="582.7"/>
</g>
</svg>
