<?xml version="1.0" encoding="utf-8"?>
<!-- Generator: Adobe Illustrator 28.2.0, SVG Export Plug-In . SVG Version: 6.00 Build 0)  -->
<svg version="1.1" id="Layer_1" xmlns="http://www.w3.org/2000/svg" xmlns:xlink="http://www.w3.org/1999/xlink" x="0px" y="0px"
	 viewBox="0 0 1920 1080" style="enable-background:new 0 0 1920 1080;" xml:space="preserve">
<style type="text/css">
	.st0{fill:none;stroke:#FBFBFB;stroke-width:6.825;stroke-linecap:round;stroke-miterlimit:10;}
</style>
<g>
	<g>
		<path class="st0" d="M994.6,629.1h-70c-4.7,0-8.6-3.6-9-8.3l-8.4-103.5H1012l-8.4,103.5C1003.2,625.5,999.3,629.1,994.6,629.1z"/>
		<path class="st0" d="M1012.2,517.3H907c-4.6,0-8.4-3.8-8.4-8.4l0,0c0-4.6,3.8-8.4,8.4-8.4h105.2c4.6,0,8.4,3.8,8.4,8.4l0,0
			C1020.6,513.6,1016.8,517.3,1012.2,517.3z"/>
		<line class="st0" x1="959.6" y1="517.3" x2="959.6" y2="629.1"/>
		<line class="st0" x1="987.5" y1="517.3" x2="980.6" y2="629.1"/>
		<line class="st0" x1="931.6" y1="517.3" x2="938.5" y2="629.1"/>
	</g>
	<path class="st0" d="M1015.1,501.1c2.9-2.8,4.7-6.6,4.7-10.9c0-8.3-6.8-15.1-15.1-15.1c-0.5,0-0.9,0.1-1.4,0.1c0,0,0-0.1,0-0.1
		c0-7.2-5.8-13.1-13.1-13.1c-0.6,0-1.2,0.1-1.8,0.2c-2.3-3.9-6.4-6.6-11.3-6.6c-2.7,0-5.2,0.8-7.2,2.2c-2.7-3.8-7.2-6.3-12.2-6.3
		c-4.3,0-8.2,1.8-10.9,4.7c-2.4-1.7-5.4-2.7-8.6-2.7c-7.7,0-14,5.8-14.9,13.2c-4.8,0.7-8.7,4-10.4,8.4c-7.7,0.7-13.7,7.1-13.7,15
		c0,4.2,1.7,7.9,4.4,10.7"/>
</g>
</svg>
