<?xml version="1.0" encoding="utf-8"?>
<!-- Generator: Adobe Illustrator 28.2.0, SVG Export Plug-In . SVG Version: 6.00 Build 0)  -->
<svg version="1.1" id="Layer_1" xmlns="http://www.w3.org/2000/svg" xmlns:xlink="http://www.w3.org/1999/xlink" x="0px" y="0px"
	 viewBox="0 0 1920 1080" style="enable-background:new 0 0 1920 1080;" xml:space="preserve">
<style type="text/css">
	.st0{fill:none;stroke:#FBFBFB;stroke-width:6.825;stroke-linecap:round;stroke-miterlimit:10;}
</style>
<g>
	<g>
		<path class="st0" d="M1050.7,508.2c-13.3-0.4-23.3-11.3-24.4-24.5c0-0.4-0.3-0.6-0.7-0.6H893.5c-0.4,0-0.7,0.3-0.7,0.6
			c-1.1,13.2-11.1,24.1-24.4,24.5c-0.4,0-0.7,0.3-0.7,0.7v62.8c0,0.4,0.3,0.7,0.7,0.7c13.3,0.4,23.4,11.3,24.4,24.5
			c0,0.4,0.3,0.6,0.7,0.6h132.2c0.4,0,0.7-0.3,0.7-0.6c1.1-13.2,11.1-24.1,24.4-24.5c0.4,0,0.7-0.3,0.7-0.7v-62.8
			C1051.4,508.5,1051.1,508.2,1050.7,508.2z"/>
	</g>
	<path class="st0" d="M960.4,502.2l11.2,21.6l22.8,3.2c0.8,0.1,1.1,1.1,0.6,1.6l-18,18.5l4.8,21.4c0.2,0.8-0.6,1.4-1.3,1.1l-21-8.9
		l-21,8.9c-0.7,0.3-1.5-0.3-1.3-1.1l4.8-21.4l-18-18.5c-0.6-0.6-0.2-1.5,0.6-1.6l22.8-3.2l11.2-21.6
		C959.1,501.5,960.1,501.5,960.4,502.2z"/>
	<line class="st0" x1="932.1" y1="502.8" x2="908.4" y2="502.8"/>
	<line class="st0" x1="987" y1="502.8" x2="1010.7" y2="502.8"/>
	<line class="st0" x1="921.9" y1="577.8" x2="908.4" y2="577.8"/>
	<line class="st0" x1="997.2" y1="577.8" x2="1010.7" y2="577.8"/>
</g>
</svg>
