<?xml version="1.0" encoding="utf-8"?>
<!-- Generator: Adobe Illustrator 28.2.0, SVG Export Plug-In . SVG Version: 6.00 Build 0)  -->
<svg version="1.1" id="Layer_1" xmlns="http://www.w3.org/2000/svg" xmlns:xlink="http://www.w3.org/1999/xlink" x="0px" y="0px"
	 viewBox="0 0 1920 1080" style="enable-background:new 0 0 1920 1080;" xml:space="preserve">
<style type="text/css">
	.st0{fill:none;stroke:#FBFBFB;stroke-width:6.825;stroke-linecap:round;stroke-miterlimit:10;}
</style>
<g>
	<path class="st0" d="M1008,620.6h-94c-12.9,0-23.4-10.5-23.4-23.4v-73.2h140c0.5,0,0.8,0.4,0.8,0.8v72.3
		C1031.4,610.1,1020.9,620.6,1008,620.6z"/>
	<path class="st0" d="M1024.7,482.7l-134.1,41.4l-1.9-6.1c-3.8-12.3,3.1-25.4,15.5-29.3L994,461c12.3-3.8,25.4,3.1,29.3,15.5
		l1.7,5.6C1025.1,482.3,1025,482.6,1024.7,482.7z"/>
	<line class="st0" x1="900.7" y1="490.4" x2="921.5" y2="514.5"/>
	<line class="st0" x1="928.7" y1="481.2" x2="949.9" y2="505.8"/>
	<line class="st0" x1="957.1" y1="472.4" x2="978.3" y2="497"/>
	<line class="st0" x1="985.5" y1="463.7" x2="1006.7" y2="488.2"/>
	<line class="st0" x1="916.8" y1="554.3" x2="1005.2" y2="554.3"/>
	<line class="st0" x1="916.8" y1="589.2" x2="985.6" y2="589.2"/>
</g>
</svg>
